# xmcd
#
# Track frame offsets:
#	150
#	20292
#	38478
#	60379
#	79513
#	95629
#	112182
#	122635
#	142617
#	160356
#	179387
#	190171
#	206222
#	222392
#	239271
#	258313
#	273548
#
# Disc length: 3820
#
# Revision: 1
# Processed by: cddbd v1.5.1PL0 Copyright (c) Steve Scherf et al.
# Submitted via: audiograbber 1.83.01
# Normalized: r0:DSETVAR1,TDELIM( - )
#
DISCID=ec0eea11
DTITLE=Various Artist - VALENTINE'S LOVE SONGS
DYEAR=2005
DGENRE=Ballad
TTITLE0=Bario Boys - I want to know what love is
TTITLE1=Sylver - Angel on my shoulder
TTITLE2=Noelia - Tu
TTITLE3=Alabina - Comme toi
TTITLE4=Nomads - Miss your kiss
TTITLE5=Sonia y Selena - Que viva la noche
TTITLE6=Karl  Zero - Inouis
TTITLE7=Sylver - Secrets
TTITLE8=Marco Antonio Solis - Amor en silencio
TTITLE9=Kaoma - A la media noche
TTITLE10=Karl Zero - I love you for sentimental reasons
TTITLE11=Sylver - In your eyes
TTITLE12=Sonia y Selena - Deja que mueva,mueva,mueva
TTITLE13=Marco Antonio Solis - Mi eterno amor secreto
TTITLE14=Mariachi Pop - If you had my love
TTITLE15=Karl  Zero - Porto Fino
TTITLE16=Aranja - Dime
EXTD=
EXTT0=
EXTT1=
EXTT2=
EXTT3=
EXTT4=
EXTT5=
EXTT6=
EXTT7=
EXTT8=
EXTT9=
EXTT10=
EXTT11=
EXTT12=
EXTT13=
EXTT14=
EXTT15=
EXTT16=
PLAYORDER=
